<?xml version='1.0' encoding='UTF-8'?>
<svg xmlns="http://www.w3.org/2000/svg" xmlns:xlink="http://www.w3.org/1999/xlink" width="415pt" height="792pt" viewBox="0 0 415 792" version="1.2">
<g>
<path class="R-WE1 R-0-6" style="fill:none;stroke-width:4.8;stroke-linecap:round;stroke-linejoin:round;stroke:rgb(100%,100%,100%);stroke-opacity:1;stroke-miterlimit:4;" d="M 238.035156 77.8125 L 236.828125 75.8125 L 235.40625 74.738281 L 232.316406 73.171875 L 224.621094 70.203125 L 220.941406 69.691406 L 208.507812 69.390625 L 189.074219 69.601562 L 176.457031 69.597656 L 171.726562 68.804688 L 155.652344 66.113281 L 148.363281 66.675781 L 143.316406 67.058594 L 124.429688 63.789062 L 107.523438 58.066406 L 97.789062 49.5 "/>
<path class="R-WE2 R-0-7" style="fill:none;stroke-width:4.8;stroke-linecap:round;stroke-linejoin:round;stroke:rgb(100%,100%,100%);stroke-opacity:1;stroke-miterlimit:4;" d="M 238.035156 77.8125 L 238.996094 77.691406 L 250.152344 76.265625 L 258 74.328125 L 265.671875 72.433594 L 272.394531 72.347656 L 278.332031 73.535156 L 283.667969 75.003906 L 290.230469 77.308594 L 303.746094 83.5 "/>
<path class="R-WE3 R-0-4" style="fill:none;stroke-width:4.8;stroke-linecap:round;stroke-linejoin:round;stroke:rgb(100%,100%,100%);stroke-opacity:1;stroke-miterlimit:4;" d="M 303.746094 83.5 L 310.542969 85.6875 L 318.9375 88.390625 L 322.355469 89.820312 L 327.261719 92.902344 L 331.039062 96.046875 L 332.875 97.96875 L 333.890625 99.058594 L 342.429688 108.265625 L 344.488281 111.015625 L 354.921875 124.375 L 362.464844 133.351562 L 365.746094 137.753906 L 368.683594 142.59375 L 374.4375 142.859375 L 384.226562 143.796875 L 393.871094 146 "/>
<path class="R-WE4 R-0-5" style="fill:none;stroke-width:4.8;stroke-linecap:round;stroke-linejoin:round;stroke:rgb(100%,100%,100%);stroke-opacity:1;stroke-miterlimit:4;" d="M 393.871094 146 L 410.691406 150.195312 L 423.976562 152.898438 L 434.34375 155.402344 L 437.757812 156.1875 L 444.679688 158.136719 L 446.414062 158.625 L 454.902344 160.621094 L 465.007812 162.988281 L 468.269531 163.757812 L 477.203125 166.34375 L 480.9375 167.425781 L 486.464844 168.558594 L 496.46875 171.097656 L 503.636719 170.160156 L 517.429688 168.492188 L 549.652344 163.90625 L 568.242188 162.15625 "/>
<path class="R-WE5 R-0-3" style="fill:none;stroke-width:4.8;stroke-linecap:round;stroke-linejoin:round;stroke:rgb(100%,100%,100%);stroke-opacity:1;stroke-miterlimit:4;" d="M 241.484375 95.972656 L 242.765625 95.855469 L 244.046875 95.734375 L 247.742188 96.113281 L 267.992188 100.882812 L 276.835938 100.929688 L 281.746094 100.269531 L 282.234375 100 L 293.554688 93.796875 L 300.496094 88.890625 L 303.746094 83.5 "/>
<path class="R-WE6 R-1-1" style="fill:none;stroke-width:4.8;stroke-linecap:round;stroke-linejoin:round;stroke:rgb(100%,100%,100%);stroke-opacity:1;stroke-miterlimit:4;" d="M 354.695312 164.507812 L 339.617188 160.082031"/>
<path class="R-WE7 R-2-1" style="fill:none;stroke-width:4.8;stroke-linecap:round;stroke-linejoin:round;stroke:rgb(100%,100%,100%);stroke-opacity:1;stroke-miterlimit:4;" d="M 393.15625 215.285156 L 409.09375 211.992188 L 409.867188 211.90625 L 418.507812 210.949219 L 422.722656 210.484375 L 442.34375 210.097656 L 454.453125 209.851562 L 457.5625 209.777344 L 458.515625 209.753906 L 462.042969 203.589844 L 462.398438 202.945312 L 469.96875 189.105469 L 480.9375 167.425781 "/>
<path class="R-WE8 R-3-1" style="fill:none;stroke-width:4.8;stroke-linecap:round;stroke-linejoin:round;stroke:rgb(100%,100%,100%);stroke-opacity:1;stroke-miterlimit:4;" d="M 276.011719 230.089844 L 280.371094 229.707031 L 286.65625 229.710938 L 288.28125 228.941406 L 300.84375 228.464844 L 303.335938 229.21875 L 321.765625 228.28125 L 324.597656 227.917969 L 327.492188 227.480469 L 333.257812 228.527344 L 346.460938 231.703125 L 358.425781 234.234375 L 366.480469 236.476562 L 371.050781 238.855469 L 375.402344 242.976562 L 383.808594 250.9375 L 387.746094 254.578125 "/>
<path class="R-WE9 R-4-2" style="fill:none;stroke-width:4.8;stroke-linecap:round;stroke-linejoin:round;stroke:rgb(100%,100%,100%);stroke-opacity:1;stroke-miterlimit:4;" d="M 358.996094 185.933594 L 360.796875 184.378906 L 363.335938 183.804688 L 393.589844 183.886719 "/>
<path class="R-WE10 R-3-2" style="fill:none;stroke-width:4.8;stroke-linecap:round;stroke-linejoin:round;stroke:rgb(100%,100%,100%);stroke-opacity:1;stroke-miterlimit:4;" d="M 387.746094 254.578125 L 390.636719 257.527344 L 399.679688 266.773438 L 404.910156 269.8125 L 417.421875 274.734375 L 420.082031 275.917969 L 422.046875 276.695312 L 427.671875 278.929688 L 431.132812 280.230469 L 435.734375 281.984375 L 436.933594 282.492188 L 441.492188 284.265625 L 447.339844 286.523438 L 455.296875 289.417969 L 466.910156 293.796875 L 475.871094 297.179688 L 477.621094 297.265625 L 487.328125 297.777344 L 494.300781 297.101562 L 496.1875 296.921875 "/>
<path class="R-WE11 R-5-1" style="fill:none;stroke-width:4.8;stroke-linecap:round;stroke-linejoin:round;stroke:rgb(100%,100%,100%);stroke-opacity:1;stroke-miterlimit:4;" d="M 330.25 394.296875 L 335.644531 394.105469 L 343.386719 393.515625 L 417.503906 387.894531 L 434.539062 388.054688 L 465.03125 396.71875 L 473.050781 399.167969 L 503.125 401.847656 L 562.863281 411.1875 L 564.90625 411.507812 L 573.371094 416.714844 L 592.234375 421.304688 L 598.554688 423.25 "/>
<path class="R-WE12 R-6-3" style="fill:none;stroke-width:4.8;stroke-linecap:round;stroke-linejoin:round;stroke:rgb(100%,100%,100%);stroke-opacity:1;stroke-miterlimit:4;" d="M 489.765625 450.226562 L 487.949219 448.875 L 480.3125 448.386719 L 468.851562 447.433594 L 465.984375 447.195312 L 451.46875 446.488281 L 447.816406 446.308594 L 438.429688 445.980469 L 422.097656 445.410156 L 414.925781 445.609375 L 411.007812 445.722656 L 403.785156 446.3125 L 385.179688 447.839844 L 351.933594 450.570312 L 351.214844 450.59375 L 350.800781 450.585938 L 348.144531 451.039062 "/>

<path class="R-NS1 R-0-8" style="fill:none;stroke-width:4.8;stroke-linecap:round;stroke-linejoin:round;stroke:rgb(100%,100%,100%);stroke-opacity:1;stroke-miterlimit:4;" d="M 241.484375 95.972656 L 240.984375 93.167969 L 240.082031 88.460938 L 238.035156 77.8125 "/>
<path class="R-NS2 R-0-2" style="fill:none;stroke-width:4.8;stroke-linecap:round;stroke-linejoin:round;stroke:rgb(100%,100%,100%);stroke-opacity:1;stroke-miterlimit:4;" d="M 289.707031 282.449219 L 289.3125 279.007812 L 288.097656 268.402344 L 286.757812 262.175781 L 279.449219 243.382812 L 277.433594 236.875 L 276.011719 230.089844 L 274.027344 226.019531 L 267.214844 216.492188 L 265.722656 214.398438 L 258.320312 205.1875 L 257.476562 204.136719 L 252.296875 198.023438 L 244.5 189.125 L 241.582031 184.832031 L 239.070312 180.371094 L 238.175781 177.378906 L 237.339844 172.703125 L 236.742188 165.421875 L 236.878906 163.621094 L 237.664062 153.460938 L 238.589844 142.007812 L 238.992188 136.257812 L 239.722656 125.808594 L 240.097656 120.839844 L 241.46875 109.601562 L 241.859375 106.488281 L 242.078125 104.773438 L 241.484375 95.972656 "/>

<path class="R-NS2 R-7-1" style="fill:none;stroke-width:4.8;stroke-linecap:round;stroke-linejoin:round;stroke:rgb(100%,100%,100%);stroke-opacity:1;stroke-miterlimit:4;" d="M 327.492188 227.480469 L 327.074219 224.234375 L 332.542969 195.152344 L 334.152344 188.691406 L 334.582031 187.359375 L 336.007812 182.96875 L 337.417969 180.960938 L 344.382812 174.28125 L 352.90625 167.160156 L 354.695312 164.507812 L 360.113281 156.488281 L 366.691406 147.25 L 368.683594 142.59375 "/>
<path class="R-NS4 R-0-9" style="fill:none;stroke-width:4.8;stroke-linecap:round;stroke-linejoin:round;stroke:rgb(100%,100%,100%);stroke-opacity:1;stroke-miterlimit:4;" d="M 393.871094 146 L 393.847656 148.535156 L 393.589844 183.886719 L 393.15625 215.285156 L 392.34375 243.941406 L 390.074219 251.617188 L 389.257812 252.65625 L 387.746094 254.578125 "/>

<path class="R-NS R-1-2" style="fill:none;stroke-width:4.8;stroke-linecap:round;stroke-linejoin:round;stroke:rgb(100%,100%,100%);stroke-opacity:1;stroke-miterlimit:4;" d="M 339.617188 160.082031 L 338.234375 168.109375 L 337.929688 169.878906 L 337.417969 180.960938 "/>
<path class="R-NS R-4-1" style="fill:none;stroke-width:4.8;stroke-linecap:round;stroke-linejoin:round;stroke:rgb(100%,100%,100%);stroke-opacity:1;stroke-miterlimit:4;" d="M 358.425781 234.234375 L 358.929688 232.207031  L 360.714844 223.679688 L 360.960938 210.988281 L 358.667969 204.195312 L 358.667969 191.09375 L 358.996094 185.933594"/>

<path class="R-NS R-8-3" style="fill:none;stroke-width:4.8;stroke-linecap:round;stroke-linejoin:round;stroke:rgb(100%,100%,100%);stroke-opacity:1;stroke-miterlimit:4;" d="M 315.386719 356.945312 L 306.261719 332.175781 L 304.917969 328.359375 L 303.011719 323.0625 L 297.238281 305.929688 "/>
<path class="R-NS R-8-2" style="fill:none;stroke-width:4.8;stroke-linecap:round;stroke-linejoin:round;stroke:rgb(100%,100%,100%);stroke-opacity:1;stroke-miterlimit:4;" d="M 335.480469 408.074219 L 330.25 394.296875 L 328.335938 390.101562 L 327.46875 388.214844 L 315.386719 356.945312 "/>

<path class="R-NS R-9-1" style="fill:none;stroke-width:4.8;stroke-linecap:round;stroke-linejoin:round;stroke:rgb(100%,100%,100%);stroke-opacity:1;stroke-miterlimit:4;" d="M 421.746094 621.546875 L 415.425781 616.234375 L 408.851562 610.671875 L 404.5 603.839844 L 403.699219 601.570312 L 401.292969 593.261719 L 398.332031 583.382812 L 397.160156 578.980469 L 396.21875 575.5625 L 395.28125 573.152344 L 394.234375 570.949219 L 392.886719 568.570312 L 391.402344 566.058594 L 390.925781 565.332031 L 389.367188 562.933594 L 388.628906 561.78125 "/>
<path class="R-NS R-1-3" style="fill:none;stroke-width:4.8;stroke-linecap:round;stroke-linejoin:round;stroke:rgb(100%,100%,100%);stroke-opacity:1;stroke-miterlimit:4;" d="M 339.617188 160.082031 L 338.234375 168.109375 L 337.929688 169.878906 L 337.417969 180.960938 "/>

<path class="R-8-1" style="fill:none;stroke-width:4.8;stroke-linecap:round;stroke-linejoin:round;stroke:rgb(100%,100%,100%);stroke-opacity:1;stroke-miterlimit:4;" d="M 341.734375 425.535156 L 340.917969 423.035156 L 335.480469 408.074219 "/>
<path class="R-9-2" style="fill:none;stroke-width:4.8;stroke-linecap:round;stroke-linejoin:round;stroke:rgb(100%,100%,100%);stroke-opacity:1;stroke-miterlimit:4;" d="M 388.628906 561.78125 L 385.542969 557.285156 L 385.214844 556.648438 L 382.585938 551.949219 L 382.433594 551.675781 L 381.15625 549.386719 L 378.195312 544.039062 L 378 543.699219 L 375.292969 538.808594 L 370.953125 528.007812 L 364.082031 507.789062 L 361.535156 498.714844 L 358.015625 486.164062 L 353.367188 470.835938 L 352.296875 466.808594 "/>
<path class="R-6-2" style="fill:none;stroke-width:4.8;stroke-linecap:round;stroke-linejoin:round;stroke:rgb(100%,100%,100%);stroke-opacity:1;stroke-miterlimit:4;" d="M 348.144531 451.039062 L 347.402344 448.101562 L 343.75 433.664062 L 343.296875 431.832031 L 341.734375 425.535156 "/>
<path class="R-6-1" style="fill:none;stroke-width:4.8;stroke-linecap:round;stroke-linejoin:round;stroke:rgb(100%,100%,100%);stroke-opacity:1;stroke-miterlimit:4;" d="M 352.296875 466.808594 L 349.320312 455.167969 L 348.144531 451.039062 "/>
<path class="R-0-1" style="fill:none;stroke-width:4.8;stroke-linecap:round;stroke-linejoin:round;stroke:rgb(100%,100%,100%);stroke-opacity:1;stroke-miterlimit:4;" d="M 297.238281 305.929688 L 291.457031 289.597656 L 289.707031 282.449219 "/>

<path class="R-KOKO R-10-1" style="fill:none;stroke-width:4.8;stroke-linecap:round;stroke-linejoin:round;stroke:rgb(100%,100%,100%);stroke-opacity:1;stroke-miterlimit:4;" d="M 408.851562 610.671875 L 407.203125 612.128906 L 406.800781 612.484375 L 402.488281 615.730469 L 396.535156 619.523438 L 391.253906 623.351562 L 388.777344 625.3125 L 387.601562 626.816406 "/>
<path class="R-IMT R-10-2" style="fill:none;stroke-width:4.8;stroke-linecap:round;stroke-linejoin:round;stroke:rgb(100%,100%,100%);stroke-opacity:1;stroke-miterlimit:4;" d="M 387.601562 626.816406 L 385.671875 630.984375 L 380.546875 645.058594 L 380.210938 645.992188 L 374.003906 662.886719 L 373.417969 664.492188 L 366.023438 684.632812 L 364.621094 688.535156 L 363.667969 691.046875 "/>
<path class="R-RU R-10-3" style="fill:none;stroke-width:4.8;stroke-linecap:round;stroke-linejoin:round;stroke:rgb(100%,100%,100%);stroke-opacity:1;stroke-miterlimit:4;" d="M 363.667969 691.046875 L 361.796875 696.140625 L 358.367188 704.859375 L 358.023438 705.980469 L 357.898438 707.179688 L 358.023438 708.316406 L 358.503906 709.503906 L 359.585938 710.71875 L 361.972656 712.265625 L 366.160156 714.855469 L 372.199219 719.761719 L 386.511719 733.078125 L 397.324219 743.867188 L 404.265625 751.542969 L 407.765625 755.414062 L 408.996094 756.601562 L 409.691406 757.148438 L 410.609375 757.574219 L 411.507812 757.847656 L 412.441406 758.011719 L 412.871094 758.023438 L 414.417969 758.050781 L 416.359375 757.582031 L 418.5625 756.539062 L 441.933594 744.699219 L 446.964844 742.21875 "/>

<path class="R-6-4" style="fill:none;stroke-width:4.8;stroke-linecap:round;stroke-linejoin:round;stroke:rgb(100%,100%,100%);stroke-opacity:1;stroke-miterlimit:4;" d="M 411.007812 445.722656 L 411.484375 452.035156 L 411.503906 452.308594 L 414.117188 486.78125 L 414.320312 489.453125 L 417.65625 489.230469 L 447.527344 490.941406 L 449.03125 491.015625 L 473.648438 492.199219 L 476.402344 492.398438 L 477.648438 491.835938 L 478.339844 491.007812 L 478.691406 490.21875 L 484.421875 471.441406 L 489.855469 453.960938 L 490.242188 452.171875 L 489.765625 450.226562 "/>
<path class="R-11-1" style="fill:none;stroke-width:4.8;stroke-linecap:round;stroke-linejoin:round;stroke:rgb(100%,100%,100%);stroke-opacity:1;stroke-miterlimit:4;" d="M 414.320312 489.453125 L 395.050781 490.949219 "/>
<path class="R-12-1" style="fill:none;stroke-width:4.8;stroke-linecap:round;stroke-linejoin:round;stroke:rgb(100%,100%,100%);stroke-opacity:1;stroke-miterlimit:4;" d="M 343.386719 393.515625 L 347.835938 388.144531 "/>
<path class="R-9-3" style="fill:none;stroke-width:4.8;stroke-linecap:round;stroke-linejoin:round;stroke:rgb(100%,100%,100%);stroke-opacity:1;stroke-miterlimit:4;" d="M 388.628906 561.78125 L 390.835938 559.976562 L 394.171875 557.027344 L 398.507812 553.519531 L 402.144531 551.277344 L 407.066406 548.882812 L 412.304688 547.640625 L 433.476562 545.214844 L 453.664062 543.371094 L 465.074219 542.445312 L 470.636719 542.980469 L 474.285156 543.757812 L 476.191406 544.078125 L 480.84375 545.066406 "/>

</g>
</svg>